<svg width="78" height="25" viewBox="0 0 78 25" fill="none" xmlns="http://www.w3.org/2000/svg">
<path d="M75.5705 15.2786L77.7344 16.6877C77.0321 17.6981 75.3523 19.4317 72.4482 19.4317C68.8419 19.4317 66.1562 16.7063 66.1562 13.2392C66.1562 9.54973 68.8704 7.04675 72.1446 7.04675C75.4376 7.04675 77.051 9.60524 77.573 10.9865L77.8578 11.6911L69.3734 15.121C70.0188 16.3633 71.0248 16.9936 72.4482 16.9936C73.8718 16.9936 74.8587 16.3076 75.5705 15.2786ZM68.9179 13.0447L74.5836 10.7456C74.2704 9.97622 73.3405 9.42934 72.2299 9.42934C70.816 9.42934 68.8515 10.653 68.9179 13.0447Z" fill="#FF302F"/>
<path d="M62.0659 0.733791H64.799V18.8662H62.0659V0.733643V0.733791Z" fill="#20B15A"/>
<path d="M57.7573 7.5287H60.3955V18.5416C60.3955 23.1117 57.6339 24.9936 54.3691 24.9936C51.2944 24.9936 49.4439 22.9727 48.751 21.332L51.171 20.3492C51.6074 21.3596 52.6609 22.5556 54.3691 22.5556C56.4664 22.5556 57.7573 21.2855 57.7573 18.9125V18.0226H57.6623C57.0359 18.7641 55.8402 19.4315 54.3217 19.4315C51.1519 19.4315 48.2478 16.7339 48.2478 13.2577C48.2478 9.76277 51.1519 7.03748 54.3217 7.03748C55.8307 7.03748 57.0359 7.69566 57.6623 8.41873H57.7573V7.52885V7.5287ZM57.9469 13.2577C57.9469 11.0699 56.457 9.47542 54.5589 9.47542C52.6419 9.47542 51.0285 11.0699 51.0285 13.2577C51.0285 15.4175 52.6419 16.9842 54.5589 16.9842C56.4572 16.9936 57.9471 15.4175 57.9471 13.2577H57.9469Z" fill="#3686F7"/>
<path d="M33.2439 13.2113C33.2439 16.7803 30.3969 19.4037 26.9044 19.4037C23.4121 19.4037 20.5649 16.7711 20.5649 13.2113C20.5649 9.62378 23.4121 7.00964 26.9044 7.00964C30.3969 7.00964 33.2439 9.62378 33.2439 13.2113ZM30.4728 13.2113C30.4728 10.9866 28.8214 9.45682 26.9044 9.45682C24.9875 9.45682 23.3361 10.9866 23.3361 13.2113C23.3361 15.4175 24.9875 16.9657 26.9044 16.9657C28.8215 16.9657 30.4728 15.4175 30.4728 13.2113Z" fill="#FF302F"/>
<path d="M47.0903 13.2392C47.0903 16.8082 44.2432 19.4316 40.7509 19.4316C37.2584 19.4316 34.4114 16.8081 34.4114 13.2392C34.4114 9.65166 37.2584 7.04675 40.7509 7.04675C44.2432 7.04675 47.0903 9.64244 47.0903 13.2392ZM44.3096 13.2392C44.3096 11.0145 42.6583 9.4847 40.7413 9.4847C38.8243 9.4847 37.1729 11.0145 37.1729 13.2392C37.1729 15.4454 38.8243 16.9936 40.7413 16.9936C42.6678 16.9936 44.3096 15.4362 44.3096 13.2392Z" fill="#FFBA40"/>
<path d="M10.1445 16.7155C6.16803 16.7155 3.05534 13.5822 3.05534 9.69798C3.05534 5.8139 6.16803 2.68057 10.1445 2.68057C12.2894 2.68057 13.8551 3.50557 15.013 4.56241L16.9206 2.69917C15.3073 1.18815 13.153 0.0384521 10.1445 0.0384521C4.69715 0.038601 0.113281 4.37714 0.113281 9.69798C0.113281 15.0191 4.69715 19.3575 10.1445 19.3575C13.0866 19.3575 15.3073 18.412 17.044 16.6507C18.8281 14.9078 19.3785 12.4605 19.3785 10.4767C19.3785 9.85557 19.3027 9.21599 19.2172 8.74322H10.1445V11.3203H16.6074C16.4176 12.9334 15.8956 14.0365 15.1269 14.7873C14.1968 15.7051 12.726 16.7155 10.1445 16.7155Z" fill="#3686F7"/>
</svg>
