<svg width="88" height="19" viewBox="0 0 88 19" fill="none" xmlns="http://www.w3.org/2000/svg">
<path d="M87.9784 8.53895V6.98406H86.057V4.56691L85.9924 4.58695L84.1877 5.14175L84.1521 5.15263V6.98423H81.3037V5.9641C81.3037 5.4891 81.4095 5.12534 81.6178 4.88283C81.8246 4.64326 82.1206 4.52149 82.4978 4.52149C82.7694 4.52149 83.0503 4.58574 83.333 4.71252L83.4038 4.74413V3.10668L83.3706 3.09441C83.1068 2.99907 82.7479 2.95105 82.3033 2.95105C81.743 2.95105 81.2337 3.07369 80.7898 3.31654C80.3453 3.55974 79.9957 3.90692 79.7509 4.34859C79.5069 4.78956 79.3831 5.29893 79.3831 5.86254V6.98423H78.0452V8.53912H79.3831V15.0895H81.3037V8.53895H84.1521V12.7017C84.1521 14.4162 84.9569 15.2852 86.5438 15.2852C86.8045 15.2852 87.079 15.2542 87.3593 15.1941C87.6446 15.1325 87.8389 15.0708 87.9532 15.0048L87.9784 14.99V13.4206L87.9004 13.4724C87.7961 13.5425 87.6663 13.5993 87.514 13.6417C87.361 13.6848 87.2335 13.7066 87.1347 13.7066C86.7629 13.7066 86.4879 13.6059 86.3171 13.4073C86.1445 13.2069 86.057 12.8563 86.057 12.3657V8.53895H87.9784ZM73.7561 13.707C73.059 13.707 72.5095 13.4745 72.1221 13.0169C71.7325 12.5569 71.535 11.9013 71.535 11.0682C71.535 10.2089 71.7325 9.53611 72.1223 9.06801C72.5098 8.60303 73.0542 8.36709 73.7405 8.36709C74.4065 8.36709 74.9367 8.5925 75.3162 9.03727C75.698 9.48463 75.8915 10.1519 75.8915 11.0214C75.8915 11.9014 75.7093 12.5777 75.3503 13.0299C74.9936 13.4788 74.4574 13.707 73.7561 13.707ZM73.8417 6.78888C72.5117 6.78888 71.4552 7.18045 70.7022 7.95289C69.9494 8.7255 69.5679 9.79433 69.5679 11.1306C69.5679 12.3996 69.9403 13.4204 70.6752 14.164C71.41 14.9081 72.41 15.285 73.647 15.285C74.9364 15.285 75.9718 14.8877 76.7246 14.1047C77.4774 13.3223 77.8588 12.2635 77.8588 10.9585C77.8588 9.66962 77.5008 8.6412 76.7947 7.90245C76.0883 7.16352 75.0945 6.78888 73.8417 6.78888ZM66.4712 6.78888C65.5664 6.78888 64.8183 7.02137 64.2464 7.47979C63.6713 7.94097 63.3797 8.54603 63.3797 9.27805C63.3797 9.65857 63.4428 9.9966 63.5667 10.2833C63.6913 10.5709 63.8843 10.8241 64.1406 11.0368C64.3949 11.2475 64.7875 11.4684 65.3079 11.6931C65.7454 11.874 66.0716 12.027 66.2789 12.1476C66.4813 12.2657 66.6252 12.3846 66.7065 12.5003C66.7852 12.6134 66.8254 12.7684 66.8254 12.9597C66.8254 13.5043 66.4196 13.7691 65.5845 13.7691C65.2749 13.7691 64.9216 13.7044 64.5347 13.5762C64.1504 13.4499 63.7878 13.2651 63.4594 13.0281L63.3797 12.9708V14.829L63.4089 14.8428C63.6808 14.9689 64.0233 15.075 64.4271 15.1587C64.8303 15.2425 65.1964 15.2852 65.5145 15.2852C66.4963 15.2852 67.2869 15.0515 67.8637 14.5901C68.4441 14.1258 68.7386 13.5066 68.7386 12.749C68.7386 12.2027 68.5801 11.7342 68.2678 11.3563C67.9577 10.9815 67.4198 10.6374 66.669 10.3332C66.0711 10.0921 65.688 9.89192 65.53 9.7382C65.3777 9.58965 65.3004 9.37979 65.3004 9.11396C65.3004 8.87819 65.3958 8.6894 65.5919 8.53636C65.7895 8.38263 66.0644 8.30439 66.4091 8.30439C66.7292 8.30439 67.0566 8.35517 67.3821 8.45466C67.7077 8.55432 67.9933 8.68767 68.2319 8.85072L68.3104 8.90461V7.14193L68.2802 7.1288C68.0602 7.03398 67.7699 6.95297 67.4174 6.88699C67.0664 6.82187 66.7481 6.78888 66.4712 6.78888ZM58.3726 13.7068C57.6758 13.7068 57.126 13.4745 56.7388 13.0169C56.349 12.5569 56.1518 11.9014 56.1518 11.0682C56.1518 10.2089 56.3491 9.53611 56.7391 9.06801C57.1263 8.60303 57.6707 8.36709 58.3573 8.36709C59.023 8.36709 59.5531 8.5925 59.9329 9.03727C60.3145 9.48463 60.5082 10.1519 60.5082 11.0214C60.5082 11.9014 60.326 12.5777 59.9668 13.0299C59.6103 13.4788 59.0742 13.707 58.3726 13.707V13.7068ZM58.4585 6.78888C57.1282 6.78888 56.0717 7.18045 55.3189 7.95289C54.5663 8.7255 54.1845 9.79433 54.1845 11.1306C54.1845 12.4001 54.5572 13.4204 55.2919 14.164C56.0267 14.9081 57.0267 15.285 58.2638 15.285C59.5529 15.285 60.5884 14.8877 61.3412 14.1047C62.0939 13.3223 62.4756 12.2635 62.4756 10.9585C62.4756 9.66962 62.1174 8.6412 61.4112 7.90245C60.7044 7.16352 59.711 6.78888 58.4584 6.78888H58.4585ZM51.269 8.38781V6.98406H49.3717V15.0895H51.2688V10.9433C51.2688 10.2382 51.428 9.65909 51.7418 9.22157C52.0517 8.78923 52.4646 8.57039 52.9689 8.57039C53.1397 8.57039 53.3315 8.59854 53.5393 8.65468C53.7449 8.7103 53.8939 8.77075 53.9817 8.83431L54.0613 8.89235V6.97024L54.0307 6.95694C53.8538 6.88146 53.6041 6.84346 53.2877 6.84346C52.8111 6.84346 52.3843 6.99736 52.0189 7.3005C51.6982 7.56684 51.4663 7.93216 51.289 8.38781H51.2688H51.269ZM45.9742 6.78888C45.1039 6.78888 44.3275 6.97646 43.667 7.3461C43.0053 7.7166 42.4936 8.24583 42.1455 8.9186C41.7989 9.58982 41.623 10.3737 41.623 11.248C41.623 12.0137 41.7935 12.7165 42.1308 13.3359C42.4682 13.9564 42.946 14.4417 43.5505 14.7782C44.1543 15.1145 44.8519 15.2852 45.6245 15.2852C46.5261 15.2852 47.296 15.1038 47.9132 14.7468L47.9381 14.7323V12.9855L47.8583 13.044C47.5744 13.2509 47.2617 13.4145 46.9302 13.5297C46.5949 13.6472 46.2891 13.7068 46.021 13.7068C45.2768 13.7068 44.6792 13.4726 44.2452 13.0112C43.8103 12.549 43.59 11.9002 43.59 11.0836C43.59 10.2619 43.82 9.59639 44.273 9.10515C44.7245 8.61564 45.3232 8.36726 46.0524 8.36726C46.676 8.36726 47.2836 8.57937 47.8585 8.99858L47.9381 9.05661V7.2162L47.9123 7.20152C47.6961 7.07992 47.401 6.9794 47.0345 6.90322C46.67 6.82722 46.3132 6.78888 45.9741 6.78888H45.9742ZM40.3161 6.98406H38.419V15.0895H40.3163V6.98423L40.3161 6.98406ZM39.387 3.53124C39.0748 3.53124 38.8026 3.63799 38.5786 3.84975C38.354 4.0622 38.24 4.32941 38.24 4.64481C38.24 4.9552 38.3526 5.21758 38.5752 5.42416C38.7962 5.63022 39.0693 5.73472 39.387 5.73472C39.7046 5.73472 39.9787 5.63022 40.2025 5.4245C40.4277 5.21758 40.542 4.9552 40.542 4.64481C40.542 4.3403 40.4308 4.07568 40.2118 3.85821C39.993 3.64127 39.7156 3.53124 39.387 3.53124ZM34.6535 6.38608V15.0895H36.5895V3.77945H33.91L30.5038 12.18L27.1983 3.77945H24.4094V15.0895H26.2289V6.38521H26.2915L29.7819 15.0893H31.155L34.5908 6.38608H34.6533H34.6535Z" fill="#706D6E"/>
<path d="M8.92495 8.96921H0V0H8.92495V8.96921Z" fill="#F1511B"/>
<path d="M18.779 8.96921H9.85425V0H18.779V8.96921Z" fill="#80CC28"/>
<path d="M8.92461 18.8756H0V9.90662H8.92461V18.8756Z" fill="#00ADEF"/>
<path d="M18.779 18.8756H9.85425V9.90662H18.779V18.8756Z" fill="#FBBC09"/>
</svg>
